<svg xmlns="http://www.w3.org/2000/svg" width="26" height="26" viewBox="0 0 26 26" fill="none">
  <path fill="#000" d="M24.6 10.9a6.4 6.4 0 0 0-.55-5.24 6.46 6.46 0 0 0-6.96-3.1A6.4 6.4 0 0 0 6.32 4.96a6.4 6.4 0 0 0-4.27 3.1 6.46 6.46 0 0 0 .79 7.58 6.4 6.4 0 0 0 .55 5.24 6.46 6.46 0 0 0 6.96 3.1 6.4 6.4 0 0 0 4.82 2.15 6.46 6.46 0 0 0 6.16-4.47 6.4 6.4 0 0 0 4.27-3.1 6.46 6.46 0 0 0-.8-7.58zM15.17 24.4a4.79 4.79 0 0 1-3.07-1.11l.15-.09 5.11-2.95a.83.83 0 0 0 .42-.72V12.3l2.16 1.25v5.95a4.8 4.8 0 0 1-4.79 4.9zM4.86 20.03a4.78 4.78 0 0 1-.57-3.22l.15.09 5.11 2.95c.26.15.57.15.83 0l6.24-3.6v2.49l-.03.06-5.17 2.98a4.8 4.8 0 0 1-6.56-1.75zM3.5 8.93a4.79 4.79 0 0 1 2.5-2.1v6.06c0 .3.16.58.42.73l6.23 3.6-2.16 1.25-5.16-2.98A4.8 4.8 0 0 1 3.5 8.93zm17.74 4.13-6.24-3.6L16.16 8.2l5.16 2.98a4.8 4.8 0 0 1-.72 8.66v-6.07a.84.84 0 0 0-.43-.72zm2.15-3.24-.15-.09-5.1-2.96a.83.83 0 0 0-.84 0l-6.23 3.6V7.9l5.16-2.98a4.8 4.8 0 0 1 7.14 4.98zM9.75 14.23l-2.16-1.25V7.03a4.8 4.8 0 0 1 7.87-3.68l-.15.09-5.11 2.95a.83.83 0 0 0-.42.72l-.03 7.12zm1.17-2.53L13.7 10.1l2.78 1.6v3.2l-2.78 1.6-2.78-1.6v-3.2z"></path>
</svg>